<?xml version="1.0" standalone="no"?>
<!DOCTYPE svg PUBLIC "-//W3C//DTD SVG 20010904//EN"
 "http://www.w3.org/TR/2001/REC-SVG-20010904/DTD/svg10.dtd">
<svg version="1.0" xmlns="http://www.w3.org/2000/svg"
 width="257.000000pt" height="257.000000pt" viewBox="0 0 257.000000 257.000000"
 preserveAspectRatio="xMidYMid meet">
<metadata>
Created by potrace 1.14, written by Peter Selinger 2001-2017
</metadata>
<g transform="translate(0.000000,257.000000) scale(0.100000,-0.100000)"
fill="#000000" stroke="none">
<path d="M2160 2547 c0 -2 6 -10 14 -16 11 -9 16 -9 22 1 4 7 4 10 -1 6 -4 -4
-14 -3 -22 3 -7 6 -13 9 -13 6z"/>
<path d="M472 2514 c-7 -8 -8 -14 -3 -14 10 0 25 19 20 25 -2 1 -10 -3 -17
-11z"/>
<path d="M2215 2511 c-9 -15 15 -25 28 -12 9 9 7 10 -7 5 -13 -5 -17 -4 -12 4
4 7 5 12 2 12 -3 0 -7 -4 -11 -9z"/>
<path d="M326 2494 c-4 -9 -4 -19 -1 -22 3 -3 5 0 5 8 0 10 3 10 17 -1 15 -13
15 -12 4 9 -14 26 -17 27 -25 6z"/>
<path d="M2145 2490 c10 -11 20 -20 23 -20 3 0 -3 9 -13 20 -10 11 -20 20 -23
20 -3 0 3 -9 13 -20z"/>
<path d="M2046 2477 c3 -10 9 -15 12 -12 3 3 0 11 -7 18 -10 9 -11 8 -5 -6z"/>
<path d="M261 2466 c-15 -8 -20 -16 -12 -20 6 -4 11 -3 11 3 0 5 12 14 28 19
15 6 20 11 12 11 -8 0 -26 -6 -39 -13z"/>
<path d="M2005 2461 c-3 -5 0 -13 6 -17 7 -4 9 -3 5 4 -3 5 0 13 6 15 9 4 10
6 1 6 -6 1 -14 -3 -18 -8z"/>
<path d="M2110 2399 c0 -5 11 -9 25 -9 14 0 25 2 25 4 0 2 -11 6 -25 8 -14 3
-25 1 -25 -3z"/>
<path d="M186 2385 c-9 -26 -7 -32 5 -12 6 10 9 21 6 23 -2 3 -7 -2 -11 -11z"/>
<path d="M333 2365 c0 -8 4 -12 9 -9 5 3 6 10 3 15 -9 13 -12 11 -12 -6z"/>
<path d="M795 2329 c-22 -3 51 -8 162 -10 111 -2 198 0 194 4 -9 9 -299 14
-356 6z"/>
<path d="M2038 2333 c-10 -2 -18 -9 -18 -14 0 -13 13 -11 36 6 19 14 14 17
-18 8z"/>
<path d="M110 2300 c-8 -5 -12 -12 -9 -15 4 -3 12 1 19 10 14 17 11 19 -10 5z"/>
<path d="M180 2295 c-19 -22 -8 -25 13 -3 9 10 13 18 8 18 -5 0 -14 -7 -21
-15z"/>
<path d="M2178 2283 c-6 -16 -10 -52 -10 -81 1 -51 1 -52 -24 -46 -23 6 -25 4
-22 -30 1 -20 6 -36 11 -36 5 0 5 -5 0 -12 -12 -16 -13 -48 -1 -48 4 0 8 -5 8
-11 0 -5 -4 -8 -10 -4 -5 3 -17 -6 -27 -21 -15 -24 -16 -27 -1 -38 19 -14 7
-43 -12 -31 -8 5 -11 4 -7 -1 3 -6 2 -16 -2 -23 -11 -17 -51 -5 -51 15 0 8 -6
14 -14 14 -8 0 -16 6 -19 13 -7 18 -196 15 -207 -4 -4 -6 -12 -9 -18 -5 -5 3
-12 -1 -16 -9 -3 -8 -15 -15 -26 -15 -13 0 -20 -7 -20 -20 0 -30 -1 -33 -21
-59 -11 -13 -19 -30 -19 -39 0 -10 -4 -12 -12 -5 -16 11 -85 9 -118 -4 -14 -6
-50 -10 -81 -9 -53 1 -57 0 -53 -21 2 -12 0 -25 -6 -28 -5 -3 -10 -21 -10 -38
0 -30 -2 -32 -33 -31 -19 1 -38 4 -44 7 -18 11 -53 -5 -59 -29 -3 -13 -9 -23
-13 -22 -16 2 -31 -3 -30 -9 5 -32 -5 -54 -31 -70 -17 -9 -30 -22 -30 -28 0
-7 -14 -9 -35 -7 -19 2 -35 8 -35 12 0 4 -9 10 -19 13 -11 2 -21 15 -23 28 -1
13 -10 24 -18 25 -8 1 -32 8 -52 18 -43 19 -62 21 -52 5 4 -7 -3 -6 -17 2 -27
14 -25 15 -46 -6 -8 -9 -15 -28 -15 -43 0 -40 -38 -112 -60 -112 -10 0 -18 5
-18 11 0 6 -7 9 -15 5 -9 -3 -15 0 -15 9 0 20 -7 19 -32 -5 -30 -28 -41 -25
-33 10 6 27 4 30 -17 28 -20 -3 -23 1 -23 30 0 18 -6 36 -13 41 -8 4 -13 10
-12 12 1 2 -4 18 -11 34 -13 31 -16 40 -18 63 0 7 -5 11 -10 8 -5 -3 -11 15
-14 40 -2 25 -8 48 -11 52 -11 10 -26 -20 -26 -53 0 -31 -11 -56 -26 -58 -5
-1 -8 -22 -7 -46 1 -31 -3 -48 -14 -56 -10 -8 -14 -19 -9 -30 9 -25 -11 -44
-55 -51 -37 -6 -51 -25 -29 -39 6 -3 10 -13 10 -21 0 -10 -13 -14 -47 -14 -35
0 -57 -7 -87 -27 -23 -16 -43 -31 -46 -34 -3 -3 -13 -8 -22 -12 -10 -3 -18
-13 -18 -22 0 -8 -4 -15 -10 -15 -12 0 -14 -77 -2 -84 5 -3 14 -57 22 -121 7
-63 16 -115 21 -115 5 0 9 -11 9 -24 0 -22 27 -96 51 -139 5 -10 7 -22 4 -27
-4 -6 -3 -10 2 -10 13 0 44 -61 36 -72 -3 -7 -1 -8 5 -4 13 8 35 -28 24 -39
-4 -5 -2 -5 4 -2 11 6 51 -51 46 -66 -1 -5 2 -6 7 -3 5 4 18 -7 27 -24 10 -16
21 -30 25 -30 3 0 19 -18 34 -40 15 -22 33 -40 41 -40 7 0 14 -4 16 -8 2 -4
22 -23 45 -41 23 -19 40 -38 36 -44 -3 -6 -2 -7 4 -4 12 8 95 -47 86 -57 -4
-4 0 -4 9 -1 9 4 19 2 22 -4 9 -15 146 -75 239 -105 9 -3 18 -6 20 -6 27 -12
158 -31 242 -36 97 -6 280 8 294 22 17 17 -44 30 -154 35 l-50 1 54 8 c101 15
93 47 -17 66 -37 7 -55 13 -40 13 62 2 30 41 -34 41 -25 0 -29 3 -18 10 29 18
-8 35 -88 38 -69 4 -79 7 -88 25 -5 12 -25 27 -44 34 -28 9 -32 13 -17 18 10
4 31 5 46 2 35 -7 65 18 40 34 -8 5 -24 9 -36 9 -12 0 -25 4 -28 10 -9 15 -76
44 -105 46 -41 2 -43 3 -37 23 3 13 0 18 -7 15 -7 -3 -23 0 -37 5 -17 7 32 10
169 9 105 -1 192 -5 192 -10 0 -4 9 -8 19 -8 14 0 18 -5 14 -20 -4 -16 0 -20
20 -20 20 0 24 -4 20 -20 -3 -11 -12 -20 -20 -20 -27 0 -7 -24 26 -31 54 -11
47 -19 -15 -18 -61 2 -114 -13 -114 -30 0 -14 26 -26 87 -40 28 -7 54 -19 57
-27 3 -8 22 -22 41 -30 43 -17 155 -42 178 -38 9 1 17 -4 17 -12 0 -8 -7 -14
-16 -14 -9 0 -14 -7 -12 -17 2 -13 18 -21 56 -27 45 -8 52 -13 52 -33 0 -13 4
-23 9 -23 5 0 7 9 4 20 -4 15 0 20 15 20 30 0 180 66 221 97 9 7 45 33 81 60
36 26 70 53 75 60 6 7 28 26 49 43 22 17 44 39 50 49 32 53 89 120 98 114 7
-4 8 -1 3 6 -4 8 1 24 12 40 23 30 103 194 103 210 0 5 8 15 18 20 9 6 12 11
5 11 -6 0 -9 9 -6 20 3 11 8 18 12 16 3 -2 7 8 8 22 1 15 9 77 17 137 17 121
22 280 11 336 -4 23 -3 39 4 43 17 11 13 46 -5 46 -12 0 -14 4 -7 13 12 15 25
102 16 111 -8 7 -11 68 -5 80 9 17 7 134 -2 129 -4 -3 -5 4 -2 15 8 23 -27 72
-51 72 -7 0 -13 4 -13 9 0 5 -14 14 -31 20 -27 9 -30 13 -19 26 10 12 10 19 2
27 -7 7 -12 20 -12 30 0 11 -7 18 -20 18 -17 0 -18 3 -10 26 15 37 12 47 -10
41 -18 -5 -20 0 -20 53 0 32 -3 65 -6 74 -10 25 -33 19 -46 -11z m-588 -1993
c0 -5 -4 -10 -9 -10 -6 0 -13 5 -16 10 -3 6 1 10 9 10 9 0 16 -4 16 -10z"/>
<path d="M296 2283 c-6 -14 -5 -15 5 -6 7 7 10 15 7 18 -3 3 -9 -2 -12 -12z"/>
<path d="M1178 2275 c-2 -2 -114 -5 -248 -6 -241 -2 -245 -2 -268 -24 -40 -40
-62 -117 -57 -204 4 -85 19 -128 64 -185 118 -148 311 -178 467 -73 144 96
191 297 102 437 -12 19 -22 39 -23 44 0 9 -30 17 -37 11z"/>
<path d="M27 2233 c-4 -3 -7 -11 -7 -17 0 -6 5 -5 12 2 6 6 9 14 7 17 -3 3 -9
2 -12 -2z"/>
<path d="M135 2221 c-3 -5 -2 -12 3 -15 5 -3 9 1 9 9 0 17 -3 19 -12 6z"/>
<path d="M70 2196 c0 -2 8 -10 18 -17 15 -13 16 -12 3 4 -13 16 -21 21 -21 13z"/>
<path d="M186 2165 c4 -8 8 -15 10 -15 2 0 4 7 4 15 0 8 -4 15 -10 15 -5 0 -7
-7 -4 -15z"/>
<path d="M25 2020 c-3 -5 -1 -10 4 -10 6 0 11 5 11 10 0 6 -2 10 -4 10 -3 0
-8 -4 -11 -10z"/>
<path d="M1310 1802 c0 -6 9 -12 20 -15 11 -3 20 -3 20 -1 0 2 -9 8 -20 14
-11 6 -20 7 -20 2z"/>
<path d="M1250 1739 c0 -5 5 -7 10 -4 6 3 10 8 10 11 0 2 -4 4 -10 4 -5 0 -10
-5 -10 -11z"/>
<path d="M1281 1727 c2 -1 13 -9 24 -17 19 -14 19 -14 6 3 -7 9 -18 17 -24 17
-6 0 -8 -1 -6 -3z"/>
<path d="M1191 1636 c-8 -10 -9 -16 -1 -21 5 -3 10 -1 10 5 0 6 4 8 10 5 6 -3
7 1 4 9 -7 19 -9 20 -23 2z"/>
<path d="M1156 1605 c-3 -8 -1 -15 4 -15 6 0 10 7 10 15 0 8 -2 15 -4 15 -2 0
-6 -7 -10 -15z"/>
<path d="M1065 1540 c-13 -6 -15 -9 -5 -9 8 0 22 4 30 9 18 12 2 12 -25 0z"/>
<path d="M2525 1320 c3 -5 8 -10 11 -10 2 0 4 5 4 10 0 6 -5 10 -11 10 -5 0
-7 -4 -4 -10z"/>
<path d="M2456 1225 c-9 -26 -7 -32 5 -12 6 10 9 21 6 23 -2 3 -7 -2 -11 -11z"/>
<path d="M2535 1130 c-3 -5 -1 -10 4 -10 6 0 11 5 11 10 0 6 -2 10 -4 10 -3 0
-8 -4 -11 -10z"/>
</g>
</svg>
